<svg xmlns="http://www.w3.org/2000/svg" viewBox="0 0 1024 1024" role="img" aria-label="CyberNeko logo">
  <rect width="1024" height="1024" rx="218" fill="#121b2e"/>
  <path d="M184 724c102 103 260 148 420 99 148-45 250-168 271-312 16-109-18-210-87-283 86 55 143 151 143 260 0 199-169 360-378 360-153 0-285-86-369-124Z" fill="#0f766e" opacity="0.42"/>
  <path d="M290 386 208 178c-8-20 13-39 32-29l196 102" fill="#edf5ff" stroke="#07111f" stroke-width="42" stroke-linejoin="round"/>
  <path d="M734 386 816 178c8-20-13-39-32-29L588 251" fill="#edf5ff" stroke="#07111f" stroke-width="42" stroke-linejoin="round"/>
  <path d="M336 322 264 226l110 63Z" fill="#ff8ea3"/>
  <path d="M688 322 760 226l-110 63Z" fill="#ff8ea3"/>
  <path d="M234 566c0-187 124-326 278-326s278 139 278 326c0 185-119 304-278 304S234 751 234 566Z" fill="#edf5ff" stroke="#07111f" stroke-width="42" stroke-linejoin="round"/>
  <ellipse cx="394" cy="524" rx="54" ry="72" fill="#07111f"/>
  <ellipse cx="630" cy="524" rx="54" ry="72" fill="#07111f"/>
  <ellipse cx="410" cy="506" rx="22" ry="32" fill="#63f3df"/>
  <ellipse cx="646" cy="506" rx="22" ry="32" fill="#63f3df"/>
  <path d="M512 594c-30 0-52 15-52 35 0 22 22 39 52 39s52-17 52-39c0-20-22-35-52-35Z" fill="#07111f"/>
  <path d="M512 664c-10 44-43 72-91 72M512 664c10 44 43 72 91 72" fill="none" stroke="#07111f" stroke-width="24" stroke-linecap="round"/>
  <path d="M323 620c-65-18-113-14-155 14M341 678c-72 5-122 28-152 70M701 620c65-18 113-14 155 14M683 678c72 5 122 28 152 70" fill="none" stroke="#07111f" stroke-width="21" stroke-linecap="round"/>
  <path d="M322 842h380" stroke="#63f3df" stroke-width="30" stroke-linecap="round"/>
</svg>
